<svg xmlns="http://www.w3.org/2000/svg" xmlns:xlink="http://www.w3.org/1999/xlink" width="500" zoomAndPan="magnify" viewBox="0 0 375 374.999991" height="500" preserveAspectRatio="xMidYMid meet" version="1.0"><path fill="#000000" d="M 195.832031 6.738281 C 194.222656 7.300781 194.273438 4.550781 194.273438 91.210938 C 194.273438 160.566406 194.359375 174.371094 194.804688 174.976562 C 195.714844 176.226562 197.425781 175.851562 201.335938 173.550781 L 217.066406 164.292969 C 223.710938 160.386719 229.9375 156.703125 230.902344 156.113281 C 231.863281 155.519531 235.636719 153.316406 239.277344 151.214844 C 242.921875 149.113281 247.304688 146.574219 249.019531 145.574219 C 261.929688 138.035156 261.367188 138.441406 262.269531 136.058594 C 262.808594 134.644531 262.863281 129.53125 262.765625 90.792969 L 262.65625 47.121094 L 261.632812 45.777344 C 260.597656 44.417969 247.953125 36.464844 246.828125 36.464844 C 246.523438 36.464844 245.878906 36.738281 245.40625 37.074219 L 244.539062 37.679688 L 244.53125 81.199219 C 244.523438 122.597656 244.484375 124.796875 243.804688 126.28125 C 242.871094 128.316406 242.792969 128.375 234.601562 133.175781 C 217.460938 143.226562 214.605469 144.976562 214.820312 145.320312 C 214.945312 145.523438 214.847656 145.566406 214.605469 145.414062 C 214.359375 145.265625 213.808594 145.332031 213.375 145.5625 L 212.585938 145.984375 L 212.585938 81.863281 C 212.585938 27.832031 212.5 17.53125 212.042969 16.433594 C 211.585938 15.347656 210.371094 14.453125 204.679688 11.03125 C 197.617188 6.785156 196.8125 6.394531 195.832031 6.738281 M 175.179688 8.539062 C 173.789062 9.449219 170.839844 11.210938 168.625 12.457031 C 165.925781 13.976562 164.355469 15.128906 163.851562 15.949219 C 163.121094 17.148438 163.101562 18.695312 163.109375 81.46875 C 163.113281 138.636719 163.050781 145.777344 162.523438 145.886719 C 162.199219 145.957031 161.933594 145.84375 161.933594 145.636719 C 161.933594 145.015625 160.65625 144.726562 160.273438 145.261719 C 160.015625 145.617188 159.976562 145.5625 160.136719 145.070312 C 160.296875 144.570312 160.058594 144.246094 159.296875 143.914062 C 158.710938 143.664062 157.816406 143.144531 157.308594 142.761719 C 156.800781 142.382812 156.230469 142.167969 156.042969 142.285156 C 155.851562 142.402344 155.699219 142.339844 155.699219 142.144531 C 155.699219 141.953125 154.792969 141.285156 153.6875 140.660156 C 151.105469 139.203125 150.351562 138.765625 146.347656 136.371094 C 143.535156 134.695312 140.71875 133.03125 137.894531 131.375 C 135.070312 129.714844 132.4375 127.890625 132.050781 127.320312 C 131.382812 126.332031 131.339844 124.003906 131.242188 82.273438 C 131.148438 42.144531 131.082031 38.203125 130.5 37.5625 C 129.316406 36.253906 127.957031 36.730469 121.089844 40.847656 C 115.761719 44.039062 114.273438 45.121094 113.636719 46.257812 C 112.84375 47.664062 112.835938 48.058594 112.835938 90.828125 C 112.835938 121.726562 112.960938 134.398438 113.277344 135.449219 C 113.566406 136.410156 114.066406 137.074219 114.738281 137.371094 C 115.300781 137.625 116.460938 138.546875 117.316406 139.425781 C 118.953125 141.105469 138.214844 152.710938 139.402344 152.734375 C 139.761719 152.742188 139.996094 152.847656 139.921875 152.96875 C 139.847656 153.085938 142.621094 154.863281 146.085938 156.914062 C 181.90625 178.109375 178.703125 176.355469 180.140625 175.554688 L 181.21875 174.957031 L 181.320312 91.8125 C 181.40625 17.835938 181.351562 8.566406 180.824219 7.761719 C 179.902344 6.355469 178.160156 6.59375 175.179688 8.539062 M 95.878906 57.164062 C 94.332031 57.988281 85.804688 63.058594 83.222656 64.691406 C 80.449219 66.445312 77.460938 68.207031 73.164062 70.625 C 70.738281 71.988281 67.605469 73.890625 66.203125 74.851562 C 64.800781 75.8125 63.488281 76.601562 63.285156 76.601562 C 63.085938 76.601562 61.921875 77.277344 60.699219 78.101562 C 59.480469 78.929688 57.253906 80.269531 55.753906 81.078125 C 52.859375 82.640625 47.515625 86.085938 44.714844 88.191406 C 43.789062 88.886719 42.71875 89.457031 42.339844 89.457031 C 41.558594 89.457031 36.855469 92.390625 36.855469 92.878906 C 36.855469 93.054688 37.074219 93.421875 37.34375 93.691406 C 37.734375 94.085938 37.625 94.105469 36.773438 93.785156 C 35.945312 93.472656 35.582031 93.515625 35.117188 93.980469 C 34.449219 94.648438 34.398438 94.910156 34.816406 95.535156 C 35.054688 95.890625 53.386719 106.214844 53.777344 106.214844 C 53.847656 106.214844 55.722656 107.242188 57.945312 108.5 C 60.167969 109.757812 64.09375 111.921875 66.664062 113.3125 C 69.234375 114.703125 74.757812 117.730469 78.9375 120.042969 C 83.117188 122.355469 88.289062 125.207031 90.433594 126.378906 C 92.574219 127.550781 95.105469 128.964844 96.058594 129.519531 C 97.007812 130.074219 97.664062 130.335938 97.519531 130.101562 C 97.375 129.867188 97.519531 129.574219 97.839844 129.449219 C 98.164062 129.324219 98.382812 129 98.328125 128.726562 C 98.265625 128.417969 98.5625 128.265625 99.109375 128.324219 L 99.996094 128.417969 L 99.890625 92.980469 C 99.820312 70 99.648438 57.417969 99.394531 57.179688 C 98.535156 56.375 97.378906 56.367188 95.878906 57.164062 M 276.5 57.488281 C 276.222656 58.007812 276.125 84.960938 276.195312 143.570312 L 276.292969 228.894531 L 277.109375 229.996094 C 277.992188 231.1875 291.0625 239.078125 292.15625 239.082031 C 292.523438 239.082031 293.191406 238.6875 293.640625 238.207031 L 294.460938 237.328125 L 294.363281 203.429688 C 294.261719 166.867188 294.191406 168.335938 296.222656 166.5625 C 296.621094 166.21875 300.367188 163.957031 304.542969 161.539062 C 308.722656 159.121094 314.5625 155.675781 317.519531 153.882812 C 320.480469 152.09375 323.582031 150.28125 324.414062 149.855469 L 325.929688 149.082031 L 326.050781 175.28125 C 326.117188 189.691406 326.019531 201.699219 325.832031 201.964844 C 325.648438 202.230469 325.609375 202.890625 325.746094 203.4375 C 325.882812 203.980469 326 216.828125 326 231.988281 C 326.003906 247.144531 326.132812 259.722656 326.285156 259.933594 C 326.433594 260.144531 327.785156 260.917969 329.285156 261.648438 C 330.789062 262.378906 333.007812 263.566406 334.222656 264.289062 C 336.539062 265.660156 341.710938 267.917969 342.542969 267.917969 C 344.042969 267.917969 344.03125 268.582031 344.0625 181.269531 L 344.09375 97.054688 L 343.121094 95.351562 C 342.296875 93.914062 341.414062 93.222656 337.488281 90.953125 C 334.925781 89.46875 332.425781 88.042969 331.929688 87.785156 C 331.4375 87.527344 328.625 85.886719 325.679688 84.140625 C 321.691406 81.785156 317.699219 79.433594 313.699219 77.09375 C 309.695312 74.746094 305.699219 72.390625 301.710938 70.019531 C 298.761719 68.261719 296.148438 66.945312 295.90625 67.09375 C 295.644531 67.253906 295.570312 67.195312 295.722656 66.949219 C 295.871094 66.707031 295.039062 66 293.734375 65.265625 C 292.5 64.566406 288.753906 62.363281 285.410156 60.363281 C 278.996094 56.53125 277.304688 55.984375 276.5 57.488281 M 294.042969 116.023438 C 294.078125 132.351562 294.191406 145.945312 294.304688 146.230469 C 294.539062 146.84375 295.933594 146.101562 307.464844 139.203125 C 317.097656 133.441406 320.078125 131.851562 320.613281 132.183594 C 320.84375 132.324219 320.929688 132.28125 320.8125 132.085938 C 320.691406 131.890625 321.441406 131.121094 322.476562 130.371094 C 325.742188 128.007812 325.761719 127.929688 325.902344 117.648438 C 326.039062 107.789062 325.808594 106.085938 324.105469 104.300781 C 323.527344 103.695312 318.757812 100.695312 313.507812 97.636719 C 308.253906 94.574219 301.816406 90.78125 299.191406 89.207031 C 296.570312 87.628906 294.328125 86.339844 294.207031 86.339844 C 294.085938 86.339844 294.011719 99.699219 294.042969 116.023438 M 31.40625 189.859375 C 31.40625 237.183594 31.519531 276.574219 31.65625 277.390625 C 32.097656 280.070312 34.289062 281.855469 44.0625 287.515625 C 60.046875 296.765625 72.765625 304.183594 78.9375 307.859375 C 93.402344 316.464844 96.546875 318.183594 97.851562 318.183594 C 100.019531 318.183594 99.9375 320.058594 99.753906 274.347656 C 99.664062 251.203125 99.597656 231.386719 99.609375 230.316406 C 99.621094 229.246094 99.710938 210.359375 99.8125 188.34375 L 99.992188 148.324219 L 99.109375 147.773438 C 91.882812 143.265625 89.855469 142.078125 89.050781 141.875 C 88.523438 141.742188 86.691406 140.785156 84.976562 139.742188 C 83.261719 138.703125 81.820312 137.886719 81.773438 137.933594 C 81.464844 138.21875 81.707031 222.976562 82.039062 231.484375 C 82.320312 238.691406 82.328125 245.199219 82.0625 252.136719 C 81.847656 257.707031 81.683594 268.097656 81.699219 275.222656 C 81.710938 282.347656 81.578125 288.175781 81.402344 288.167969 C 80.988281 288.152344 78.585938 286.792969 67.753906 280.429688 C 63.625 278.003906 59.496094 275.582031 55.363281 273.160156 C 53.433594 272.03125 51.417969 270.640625 50.882812 270.066406 C 49.789062 268.898438 49.851562 270.070312 49.964844 252.332031 C 50 247.507812 49.910156 214.71875 49.773438 179.46875 L 49.519531 115.371094 L 46.402344 113.542969 C 43.183594 111.660156 41.9375 110.792969 38.609375 108.121094 C 37.058594 106.875 33.742188 104.871094 31.691406 103.941406 C 31.53125 103.871094 31.402344 142.53125 31.40625 189.859375 M 114.441406 154.367188 C 113.929688 154.632812 113.363281 155.082031 113.179688 155.371094 C 113 155.660156 112.847656 169.664062 112.84375 186.492188 C 112.839844 213.5625 112.90625 217.1875 113.445312 217.957031 C 114.542969 219.527344 115.84375 219.082031 123.621094 214.476562 C 127.65625 212.085938 133.058594 208.90625 135.632812 207.410156 C 138.203125 205.914062 141.183594 204.121094 142.253906 203.433594 C 143.328125 202.742188 147.796875 200.074219 152.191406 197.503906 C 166.101562 189.367188 167.867188 188.253906 168.277344 187.359375 C 169.050781 185.679688 168.140625 184.847656 160.710938 180.460938 C 156.773438 178.140625 152.679688 175.6875 151.605469 175.011719 C 150.535156 174.335938 148.054688 172.964844 146.089844 171.960938 C 144.128906 170.960938 141.410156 169.382812 140.050781 168.457031 C 138.691406 167.527344 137.054688 166.515625 136.410156 166.203125 C 135.769531 165.890625 134.367188 164.972656 133.292969 164.164062 C 132.222656 163.355469 130.152344 162.089844 128.695312 161.355469 C 127.238281 160.621094 125.007812 159.386719 123.734375 158.613281 C 122.402344 157.804688 121.210938 157.328125 120.925781 157.488281 C 120.65625 157.644531 120.5625 157.632812 120.71875 157.457031 C 120.984375 157.164062 117.238281 154.507812 115.953125 154.078125 C 115.632812 153.972656 114.953125 154.101562 114.441406 154.367188 M 258.371094 154.679688 C 257.941406 154.957031 256.453125 155.882812 255.058594 156.738281 C 245.5625 162.582031 243.847656 163.679688 242.980469 164.484375 C 242.445312 164.976562 240.800781 166.019531 239.328125 166.796875 C 236.175781 168.464844 235.078125 169.140625 233.238281 170.5625 C 232.488281 171.140625 230.734375 172.070312 229.34375 172.625 C 227.949219 173.183594 226.066406 174.167969 225.160156 174.816406 C 224.253906 175.464844 222.675781 176.363281 221.65625 176.8125 C 220.632812 177.257812 219.359375 177.925781 218.820312 178.296875 C 218.285156 178.664062 215.566406 180.234375 212.78125 181.785156 C 209.996094 183.335938 207.589844 184.808594 207.429688 185.058594 C 206.867188 185.941406 207.148438 187.527344 208.007812 188.320312 C 208.789062 189.035156 213.253906 191.710938 229.148438 200.996094 C 231.71875 202.5 234.875 204.378906 236.160156 205.175781 C 239.640625 207.335938 250.382812 213.707031 255.136719 216.433594 C 259.691406 219.042969 261.6875 219.488281 262.457031 218.054688 C 262.734375 217.53125 262.832031 207.378906 262.761719 186.089844 C 262.648438 151.84375 262.824219 154.136719 260.320312 154.167969 C 259.675781 154.175781 258.800781 154.40625 258.371094 154.679688 M 175.082031 198.980469 C 173.207031 200.070312 171.675781 201.09375 171.675781 201.253906 C 171.675781 201.414062 171.457031 201.554688 171.1875 201.566406 C 170.511719 201.597656 159.957031 207.753906 160.1875 207.984375 C 160.289062 208.085938 160.15625 208.175781 159.886719 208.183594 C 159.371094 208.195312 154.597656 210.890625 146.929688 215.5 C 143.757812 217.402344 140.578125 219.289062 137.386719 221.160156 C 133.746094 223.296875 130.109375 225.4375 126.476562 227.585938 C 123.152344 229.550781 119.148438 231.910156 117.574219 232.820312 C 115.085938 234.269531 114.59375 234.742188 113.78125 236.492188 L 112.84375 238.5 L 112.855469 283.113281 L 112.871094 327.726562 L 113.730469 329.480469 C 114.777344 331.617188 115.503906 332.117188 129.203125 340.082031 C 144.414062 348.933594 168.902344 363.296875 173.816406 366.253906 C 176.175781 367.675781 178.496094 368.835938 178.980469 368.835938 C 179.460938 368.835938 180.207031 368.484375 180.636719 368.058594 C 181.394531 367.300781 181.414062 366.757812 181.414062 348.476562 C 181.414062 327.1875 181.550781 328.15625 178.265625 326.445312 C 177.316406 325.953125 175.667969 325.035156 174.597656 324.40625 C 170.746094 322.144531 168.253906 320.949219 167.957031 321.21875 C 167.789062 321.371094 167.765625 321.292969 167.90625 321.050781 C 168.234375 320.476562 166.519531 319.351562 165.320312 319.351562 C 164.808594 319.351562 164.101562 319.671875 163.746094 320.0625 C 163.1875 320.683594 163.101562 321.949219 163.101562 329.804688 C 163.101562 334.769531 163 338.832031 162.878906 338.832031 C 162.757812 338.832031 158.328125 336.316406 153.039062 333.238281 C 148.214844 330.429688 143.386719 327.625 138.554688 324.832031 C 135.875 323.285156 133.15625 321.503906 132.515625 320.875 L 131.34375 319.726562 L 131.234375 314.183594 C 131.089844 307.058594 131.21875 306.78125 136.136719 303.699219 C 138.132812 302.449219 139.820312 301.425781 139.890625 301.425781 C 140.054688 301.425781 157.65625 291.15625 159.636719 289.90625 C 162.3125 288.21875 162.324219 288.171875 162.308594 278.839844 C 162.296875 269.894531 162.140625 269.085938 160.402344 269.085938 C 159.929688 269.085938 159.160156 269.285156 158.691406 269.527344 C 157.792969 269.996094 141.308594 279.75 135.046875 283.519531 C 133.011719 284.746094 131.257812 285.699219 131.152344 285.636719 C 131.042969 285.578125 131.042969 276.859375 131.152344 266.261719 L 131.34375 247 L 132.320312 245.738281 C 132.882812 245.007812 135.59375 243.121094 138.75 241.261719 C 141.75 239.492188 148.128906 235.722656 152.925781 232.882812 C 157.71875 230.042969 161.871094 227.632812 162.152344 227.527344 C 162.554688 227.371094 162.683594 229.09375 162.78125 236.070312 C 162.917969 245.457031 163.054688 246.097656 164.925781 246.097656 C 166.34375 246.097656 179.476562 238.1875 180.539062 236.695312 L 181.414062 235.460938 L 181.414062 216.957031 C 181.414062 198.503906 181.414062 198.453125 180.578125 197.730469 C 180.113281 197.328125 179.457031 197 179.117188 197 C 178.773438 197.003906 176.960938 197.890625 175.082031 198.980469 M 194.917969 197.714844 C 194.324219 198.371094 194.273438 204.839844 194.273438 282.851562 L 194.273438 367.277344 L 195.09375 368.097656 C 195.691406 368.695312 196.210938 368.859375 197.007812 368.699219 C 197.609375 368.578125 201.144531 366.660156 204.859375 364.4375 C 208.574219 362.210938 215.207031 358.292969 219.601562 355.722656 C 224.929688 352.605469 230.253906 349.488281 235.578125 346.363281 C 240.886719 343.25 246.214844 340.160156 251.550781 337.089844 C 255.945312 334.574219 260.019531 332.0625 260.605469 331.515625 C 262.792969 329.464844 262.894531 328.640625 262.769531 313.765625 C 262.664062 300.851562 262.621094 300.167969 261.902344 299.640625 C 261.484375 299.335938 260.785156 299.09375 260.34375 299.097656 C 259.167969 299.109375 246.097656 306.894531 245.195312 308.121094 C 244.527344 309.027344 244.4375 309.734375 244.496094 313.492188 C 244.597656 320.1875 244.265625 320.695312 237.136719 324.714844 C 235.667969 325.542969 233.585938 326.757812 221.074219 334.097656 C 216.632812 336.703125 212.90625 338.832031 212.792969 338.832031 C 212.679688 338.832031 212.585938 313.671875 212.585938 282.917969 C 212.585938 252.164062 212.695312 227.003906 212.828125 227.003906 C 212.957031 227.003906 214.402344 227.835938 216.03125 228.855469 C 217.664062 229.871094 224.34375 233.863281 230.875 237.71875 C 240.5625 243.441406 242.894531 244.984375 243.535156 246.089844 C 244.222656 247.269531 244.339844 248.273438 244.453125 253.882812 C 244.527344 257.421875 244.753906 260.757812 244.957031 261.292969 C 245.398438 262.441406 246.003906 262.855469 253.695312 267.347656 C 257.335938 269.472656 259.964844 270.761719 260.667969 270.765625 C 262.894531 270.78125 262.894531 270.792969 262.769531 253.5 C 262.65625 237.78125 262.652344 237.714844 261.75 236.132812 C 260.898438 234.65625 259.167969 233.269531 255.792969 231.375 C 255.023438 230.941406 253.097656 229.808594 251.511719 228.847656 C 249.65625 227.734375 247.785156 226.636719 245.902344 225.558594 C 242.664062 223.71875 232.515625 217.8125 231.679688 217.28125 C 231.359375 217.078125 229.34375 215.910156 227.199219 214.6875 C 225.054688 213.464844 221.8125 211.550781 219.992188 210.433594 C 213.519531 206.472656 204.441406 201.222656 204.175781 201.289062 C 204.027344 201.324219 203.800781 201.183594 203.667969 200.976562 C 203.167969 200.1875 197.441406 197 196.523438 197 C 195.996094 197 195.273438 197.320312 194.917969 197.714844 M 276.5625 247.738281 C 275.90625 248.398438 275.894531 318.085938 276.550781 319.527344 C 276.847656 320.179688 277.316406 320.519531 277.914062 320.519531 C 278.414062 320.519531 286.144531 316.113281 295.09375 310.722656 C 304.042969 305.335938 317.1875 297.429688 324.304688 293.152344 C 332.972656 287.945312 337.332031 285.105469 337.503906 284.5625 C 337.691406 283.972656 337.507812 283.542969 336.835938 283.011719 C 336.242188 282.535156 335.652344 282.050781 335.066406 281.558594 C 334.605469 281.160156 334.148438 280.914062 334.058594 281.007812 C 333.964844 281.097656 333.292969 280.769531 332.5625 280.273438 C 331.832031 279.78125 330.929688 279.257812 330.554688 279.113281 C 330.179688 278.96875 329.871094 278.671875 329.871094 278.449219 C 329.871094 278.230469 329.628906 278.046875 329.335938 278.046875 C 329.039062 278.046875 328.582031 277.789062 328.316406 277.46875 C 328.050781 277.148438 327.679688 276.984375 327.488281 277.101562 C 327.300781 277.21875 327.144531 277.117188 327.144531 276.878906 C 327.144531 276.640625 326.96875 276.550781 326.753906 276.683594 C 326.539062 276.816406 326.363281 276.765625 326.363281 276.570312 C 326.363281 276.378906 325.664062 275.902344 324.804688 275.515625 C 323.949219 275.128906 323.246094 274.703125 323.246094 274.570312 C 323.246094 274.4375 322.589844 273.988281 321.785156 273.574219 C 320.984375 273.15625 319.402344 272.238281 318.273438 271.535156 C 317.140625 270.832031 315.953125 270.253906 315.628906 270.253906 C 315.304688 270.253906 314.933594 269.980469 314.808594 269.648438 C 314.679688 269.316406 314.324219 269.136719 314.019531 269.253906 C 313.714844 269.371094 313.558594 269.320312 313.667969 269.136719 C 313.835938 268.867188 310.253906 266.59375 309.609375 266.5625 C 309.503906 266.558594 308.863281 266.15625 308.1875 265.675781 C 307.511719 265.195312 306.765625 264.800781 306.53125 264.800781 C 306.296875 264.800781 306.101562 264.613281 306.101562 264.386719 C 306.101562 264.160156 305.949219 264.070312 305.757812 264.1875 C 305.566406 264.304688 304.011719 263.46875 302.300781 262.332031 C 300.59375 261.191406 298.644531 260.035156 297.972656 259.757812 C 297.300781 259.476562 296.75 259.085938 296.75 258.886719 C 296.75 258.683594 296.574219 258.628906 296.363281 258.761719 C 296.148438 258.894531 295.972656 258.839844 295.972656 258.644531 C 295.972656 258.445312 295.144531 257.867188 294.136719 257.351562 C 293.125 256.839844 291.882812 256.054688 291.375 255.601562 C 290.867188 255.148438 289.371094 254.273438 288.046875 253.652344 C 286.726562 253.035156 285.558594 252.425781 285.453125 252.300781 C 285.191406 252 278.804688 248.433594 278.523438 248.433594 C 278.402344 248.433594 278.015625 248.175781 277.664062 247.855469 C 277.171875 247.410156 276.917969 247.382812 276.5625 247.738281 M 312.335938 283.113281 C 312.335938 283.328125 312.730469 283.5 313.214844 283.496094 C 313.921875 283.492188 313.980469 283.417969 313.507812 283.113281 C 312.75 282.625 312.335938 282.625 312.335938 283.113281 M 316.796875 288.394531 C 316.070312 288.976562 316.074219 288.984375 316.914062 288.578125 C 317.398438 288.34375 317.792969 288.070312 317.792969 287.96875 C 317.792969 287.671875 317.589844 287.757812 316.796875 288.394531 M 315.84375 294.023438 C 315.324219 294.359375 315.324219 294.402344 315.84375 294.402344 C 316.164062 294.402344 316.691406 294.230469 317.011719 294.023438 C 317.53125 293.6875 317.53125 293.644531 317.011719 293.644531 C 316.691406 293.644531 316.164062 293.816406 315.84375 294.023438 " fill-opacity="1" fill-rule="evenodd"/></svg>